<svg id="Calque_1" data-name="Calque 1" xmlns="http://www.w3.org/2000/svg" xmlns:xlink="http://www.w3.org/1999/xlink" viewBox="0 0 129.01 44.66"><defs><clipPath id="clip-path" transform="translate(-0.42 -0.14)"><rect x="-51.2" y="-24.48" width="254.21" height="111.84" fill="none"/></clipPath></defs><title>logo</title><g clip-path="url(#clip-path)"><path d="M14,30.81c-.33-.85-.63-1.66-.91-2.44s-.54-1.54-.79-2.28H3.9c-.29.74-.57,1.5-.85,2.28s-.56,1.6-.87,2.44H.42q1-2.7,1.85-5c.58-1.55,1.16-3,1.71-4.4s1.12-2.7,1.67-4,1.13-2.55,1.74-3.83H8.88c.61,1.28,1.18,2.55,1.73,3.83s1.1,2.6,1.66,4,1.13,2.85,1.7,4.4,1.21,3.22,1.9,5ZM8.08,15.53q-.93,2.15-1.82,4.35T4.43,24.65h7.35q-1-2.56-1.86-4.77T8.08,15.53" transform="translate(-0.42 -0.14)" fill="#586078"/><path d="M21.48,31a5.67,5.67,0,0,1-1.42-.21,2.51,2.51,0,0,1-1-.57,2.41,2.41,0,0,1-.62-1,4.46,4.46,0,0,1-.21-1.53V11.83l1.61-.3V27.67a3.41,3.41,0,0,0,.11,1,1.28,1.28,0,0,0,.34.57,1.26,1.26,0,0,0,.58.31,6.25,6.25,0,0,0,.86.18Z" transform="translate(-0.42 -0.14)" fill="#586078"/><path d="M26.08,18H31.2v1.37H26.08v6.83a7.09,7.09,0,0,0,.19,1.78,2.43,2.43,0,0,0,.53,1,1.68,1.68,0,0,0,.85.5,4.4,4.4,0,0,0,1.09.13,4.57,4.57,0,0,0,1.64-.24,8.41,8.41,0,0,0,1-.43l.4,1.34a6.84,6.84,0,0,1-1.22.51,6.05,6.05,0,0,1-1.89.28,5.47,5.47,0,0,1-2-.31,2.94,2.94,0,0,1-1.29-.94,3.84,3.84,0,0,1-.68-1.58,10.55,10.55,0,0,1-.2-2.24V14.19l1.61-.3Z" transform="translate(-0.42 -0.14)" fill="#586078"/><path d="M33.41,24.37a8.17,8.17,0,0,1,.48-2.94,6.63,6.63,0,0,1,1.27-2.1A5.11,5.11,0,0,1,37,18.07,5.46,5.46,0,0,1,39,17.66a4.85,4.85,0,0,1,3.77,1.55A6.9,6.9,0,0,1,44.19,24a2.75,2.75,0,0,1,0,.4c0,.13,0,.26,0,.37h-9a5.66,5.66,0,0,0,1.17,3.63,4.35,4.35,0,0,0,3.47,1.27,7,7,0,0,0,2.09-.25A10.73,10.73,0,0,0,43,29l.3,1.39a6.73,6.73,0,0,1-1.3.47,8.11,8.11,0,0,1-2.25.27,7.29,7.29,0,0,1-2.88-.5,5.06,5.06,0,0,1-2-1.39,5.36,5.36,0,0,1-1.12-2.12,9.86,9.86,0,0,1-.35-2.7m9.12-1a5.18,5.18,0,0,0-1-3.13,3,3,0,0,0-2.53-1.11,3.32,3.32,0,0,0-1.55.35,3.88,3.88,0,0,0-1.2.93,4.36,4.36,0,0,0-.79,1.35,5.57,5.57,0,0,0-.34,1.62Z" transform="translate(-0.42 -0.14)" fill="#586078"/><path d="M52.16,17.72a8.28,8.28,0,0,1,1.5.12,4.79,4.79,0,0,1,1,.25l-.33,1.39a3.78,3.78,0,0,0-.8-.21,8.61,8.61,0,0,0-1.6-.11,6.74,6.74,0,0,0-1.68.15,3.78,3.78,0,0,0-.83.24V30.81H47.79V18.56A11.51,11.51,0,0,1,49.51,18a10.3,10.3,0,0,1,2.65-.28" transform="translate(-0.42 -0.14)" fill="#586078"/><path d="M70.88,11.78a.49.49,0,0,1,.48.36c.3,1,.61,2,.94,3.12s.76,2.41,1.16,3.62l1.21,3.56.61,1.76a.52.52,0,0,0,.64.32.53.53,0,0,0,.33-.37c.16-.65.32-1.34.48-2,.29-1.31.58-2.67.87-4.09s.57-2.85.85-4.31S80.29,3,80.71.56a.51.51,0,0,1,.5-.42h3a.5.5,0,0,1,.51.49.41.41,0,0,1,0,.11c-.82,4.46-3,16.4-3.84,19.81S79.05,27.31,78,30.46a.49.49,0,0,1-.47.35h-3a.5.5,0,0,1-.47-.32Q71.94,25,70,18.72a.51.51,0,0,0-.62-.34.49.49,0,0,0-.34.34q-.92,2.91-1.84,5.56c-.75,2.14-1.49,4.2-2.24,6.2a.5.5,0,0,1-.47.33h-3a.52.52,0,0,1-.48-.34q-1.59-4.74-2.86-9.92T55.84,10a.51.51,0,0,1,.41-.59h3.24a.49.49,0,0,1,.49.41c.23,1.27.47,2.57.72,3.89q.42,2.21.87,4.32c.29,1.41.6,2.77.91,4.1q.26,1.1.51,2.1a.51.51,0,0,0,.6.38.5.5,0,0,0,.36-.33c.22-.6.43-1.2.65-1.83.4-1.16.79-2.35,1.19-3.56s.77-2.4,1.13-3.6.62-2.1.9-3.1a.5.5,0,0,1,.48-.36Z" transform="translate(-0.42 -0.14)" fill="#53cd21"/><path d="M86.54,30.3V9.87a.5.5,0,0,1,.5-.5H99.8a.5.5,0,0,1,.5.5v2.3a.5.5,0,0,1-.5.5H90.93a.5.5,0,0,0-.5.5v4.28a.5.5,0,0,0,.5.5h7.79a.51.51,0,0,1,.5.5v2.26a.5.5,0,0,1-.5.5H90.93a.51.51,0,0,0-.5.5V27a.51.51,0,0,0,.5.5h9.61a.5.5,0,0,1,.5.5v2.3a.5.5,0,0,1-.5.5H87a.49.49,0,0,1-.5-.49" transform="translate(-0.42 -0.14)" fill="#53cd21"/><path d="M112.61,29.32a2.6,2.6,0,0,1-.45.28,6.89,6.89,0,0,1-.73.34,6,6,0,0,1-1,.28,5.81,5.81,0,0,1-1.25.11A6.55,6.55,0,0,1,107,30a4.82,4.82,0,0,1-1.83-1.1A5.32,5.32,0,0,1,103.94,27a7.8,7.8,0,0,1-.48-2.87,7.37,7.37,0,0,1,.43-2.54,6,6,0,0,1,1.2-2A5.34,5.34,0,0,1,107,18.2a6.35,6.35,0,0,1,2.54-.49,13.74,13.74,0,0,1,2.87.24c.72.16,1.32.31,1.78.46V30.14c0,1.92-.5,3.29-1.49,4.11a7,7,0,0,1-4.5,1.23,12.69,12.69,0,0,1-4-.62l.33-1.47a7.14,7.14,0,0,0,1.62.47,11.19,11.19,0,0,0,2.08.2,5,5,0,0,0,3.31-.88,3.83,3.83,0,0,0,1-3Zm0-9.79a10.08,10.08,0,0,0-1.09-.24,13.68,13.68,0,0,0-1.91-.11,4.57,4.57,0,0,0-1.86.36,3.91,3.91,0,0,0-1.37,1,4.37,4.37,0,0,0-.87,1.56,6.22,6.22,0,0,0-.3,2,6,6,0,0,0,.35,2.18,4.18,4.18,0,0,0,.9,1.48,3.49,3.49,0,0,0,1.28.83,4.34,4.34,0,0,0,1.47.26,5.94,5.94,0,0,0,2-.32,4.74,4.74,0,0,0,1.4-.75Z" transform="translate(-0.42 -0.14)" fill="#586078"/><path d="M129.43,24.4a8.29,8.29,0,0,1-.44,2.75,6.08,6.08,0,0,1-1.22,2.12,5.53,5.53,0,0,1-1.85,1.35,6,6,0,0,1-4.72,0,5.73,5.73,0,0,1-1.85-1.35,6.24,6.24,0,0,1-1.22-2.12,8.94,8.94,0,0,1,0-5.51,6.41,6.41,0,0,1,1.22-2.12,5.32,5.32,0,0,1,1.85-1.37,6,6,0,0,1,4.72,0,5.32,5.32,0,0,1,1.85,1.37A6.24,6.24,0,0,1,129,21.64a8.35,8.35,0,0,1,.44,2.76m-1.72,0a6,6,0,0,0-1.12-3.84,3.92,3.92,0,0,0-5.53-.53,4.42,4.42,0,0,0-.53.53,7.12,7.12,0,0,0,0,7.66,4,4,0,0,0,5.57.5,3.86,3.86,0,0,0,.49-.5,6,6,0,0,0,1.12-3.82" transform="translate(-0.42 -0.14)" fill="#586078"/></g><path d="M4.47,44a1.79,1.79,0,0,1-.64-.48l.3-.82a1.71,1.71,0,0,0,.58.45,1.48,1.48,0,0,0,.68.16,1,1,0,0,0,.67-.21.72.72,0,0,0,.25-.59.58.58,0,0,0-.1-.35A.83.83,0,0,0,6,41.93l-.42-.2a3.29,3.29,0,0,1-.6-.31,1.18,1.18,0,0,1-.4-.45,1.55,1.55,0,0,1-.16-.77,2.12,2.12,0,0,1,.21-1,1.56,1.56,0,0,1,.59-.63,1.7,1.7,0,0,1,.88-.23,1.85,1.85,0,0,1,.7.13,1.61,1.61,0,0,1,.58.35l-.28.83a1.58,1.58,0,0,0-.48-.33A1.55,1.55,0,0,0,6,39.25a1,1,0,0,0-.68.23.78.78,0,0,0-.25.61.61.61,0,0,0,.1.36.71.71,0,0,0,.26.23,2.88,2.88,0,0,0,.43.21,6.3,6.3,0,0,1,.59.3,1.19,1.19,0,0,1,.4.43,1.55,1.55,0,0,1,.16.73,2.1,2.1,0,0,1-.21,1,1.54,1.54,0,0,1-.6.64,1.75,1.75,0,0,1-.89.22A2.06,2.06,0,0,1,4.47,44Z" transform="translate(-0.42 -0.14)" fill="#586078"/><path d="M11.22,42.25H8.88c0,.7.3,1,.85,1a1,1,0,0,0,.47-.11,1.19,1.19,0,0,0,.38-.33l.28.7a1.45,1.45,0,0,1-.54.45,1.52,1.52,0,0,1-.66.15,1.28,1.28,0,0,1-.77-.24,1.42,1.42,0,0,1-.5-.66,2.59,2.59,0,0,1-.18-1A3.57,3.57,0,0,1,8.43,41a2.19,2.19,0,0,1,.6-.9,1.36,1.36,0,0,1,.88-.32,1.17,1.17,0,0,1,1,.5,2.29,2.29,0,0,1,.37,1.39C11.26,41.84,11.24,42.05,11.22,42.25ZM9.28,40.83a1.63,1.63,0,0,0-.34.75h1.69a1.26,1.26,0,0,0-.2-.75.68.68,0,0,0-.56-.27A.78.78,0,0,0,9.28,40.83Z" transform="translate(-0.42 -0.14)" fill="#586078"/><path d="M14,39.89a1.46,1.46,0,0,1,.66-.14l-.13,1a.52.52,0,0,0-.17,0q-.84,0-1,1.29L13,44.1h-.68l.58-4.3h.65l-.07.55A1,1,0,0,1,14,39.89Z" transform="translate(-0.42 -0.14)" fill="#586078"/><path d="M18.92,39.8l-1.85,4.3h-.71l-.67-4.3h.67l.49,3.2,1.37-3.2Z" transform="translate(-0.42 -0.14)" fill="#586078"/><path d="M20.07,39.8h.69l-.59,4.3h-.68Zm.2-.87a.77.77,0,0,1-.11-.4.74.74,0,0,1,.13-.46.38.38,0,0,1,.34-.19.33.33,0,0,1,.29.16.6.6,0,0,1,.12.38.83.83,0,0,1-.13.49.41.41,0,0,1-.34.18A.35.35,0,0,1,20.27,38.93Z" transform="translate(-0.42 -0.14)" fill="#586078"/><path d="M22.51,43.92a1.46,1.46,0,0,1-.5-.66,2.59,2.59,0,0,1-.18-1A3.57,3.57,0,0,1,22.06,41a2,2,0,0,1,.62-.89,1.4,1.4,0,0,1,.91-.33,1.27,1.27,0,0,1,.77.25,1.62,1.62,0,0,1,.49.76l-.58.44a.75.75,0,0,0-.73-.6.73.73,0,0,0-.52.21,1.27,1.27,0,0,0-.36.57,2.42,2.42,0,0,0-.14.84,1.32,1.32,0,0,0,.21.79.65.65,0,0,0,.57.29.77.77,0,0,0,.46-.15,1.18,1.18,0,0,0,.35-.45l.5.5a1.63,1.63,0,0,1-.56.7,1.33,1.33,0,0,1-.78.26A1.25,1.25,0,0,1,22.51,43.92Z" transform="translate(-0.42 -0.14)" fill="#586078"/><path d="M28.76,42.25H26.43c0,.7.29,1,.85,1a1.12,1.12,0,0,0,.47-.11,1.16,1.16,0,0,0,.37-.33l.29.7a1.45,1.45,0,0,1-.54.45,1.56,1.56,0,0,1-.67.15,1.23,1.23,0,0,1-.76-.24,1.44,1.44,0,0,1-.51-.66,2.79,2.79,0,0,1-.17-1A3.79,3.79,0,0,1,26,41a2.21,2.21,0,0,1,.61-.9,1.36,1.36,0,0,1,.87-.32,1.19,1.19,0,0,1,1,.5,2.36,2.36,0,0,1,.36,1.39A4.17,4.17,0,0,1,28.76,42.25Zm-1.93-1.42a1.45,1.45,0,0,0-.34.75h1.68a1.13,1.13,0,0,0-.2-.75.66.66,0,0,0-.55-.27A.76.76,0,0,0,26.83,40.83Z" transform="translate(-0.42 -0.14)" fill="#586078"/><path d="M34,38.46l-.77,5.64h-.71l.65-4.76h-.82l.12-.88Z" transform="translate(-0.42 -0.14)" fill="#586078"/><path d="M35.41,43.63a2.84,2.84,0,0,1-.36-1.55,6.42,6.42,0,0,1,.25-1.85,3.31,3.31,0,0,1,.7-1.35,1.35,1.35,0,0,1,1-.5,1.12,1.12,0,0,1,1,.56,2.81,2.81,0,0,1,.36,1.54,6.37,6.37,0,0,1-.25,1.85,3.43,3.43,0,0,1-.69,1.35,1.38,1.38,0,0,1-1,.5A1.12,1.12,0,0,1,35.41,43.63Zm1.68-.79a3.19,3.19,0,0,0,.41-1.07,5.55,5.55,0,0,0,.15-1.26,1.85,1.85,0,0,0-.18-.91.55.55,0,0,0-.5-.31.75.75,0,0,0-.64.43,3.19,3.19,0,0,0-.42,1.07,5.53,5.53,0,0,0-.14,1.26A1.87,1.87,0,0,0,36,43a.56.56,0,0,0,.51.3A.75.75,0,0,0,37.09,42.84Z" transform="translate(-0.42 -0.14)" fill="#586078"/><path d="M39.83,43.63a2.84,2.84,0,0,1-.36-1.55,6.78,6.78,0,0,1,.25-1.85,3.44,3.44,0,0,1,.7-1.35,1.36,1.36,0,0,1,1-.5,1.11,1.11,0,0,1,1,.56,2.81,2.81,0,0,1,.36,1.54,6.37,6.37,0,0,1-.25,1.85,3.3,3.3,0,0,1-.69,1.35,1.36,1.36,0,0,1-1,.5A1.12,1.12,0,0,1,39.83,43.63Zm1.68-.79a3.41,3.41,0,0,0,.42-1.07,6.16,6.16,0,0,0,.14-1.26,1.85,1.85,0,0,0-.18-.91.55.55,0,0,0-.5-.31.77.77,0,0,0-.64.43,3.41,3.41,0,0,0-.42,1.07,6.16,6.16,0,0,0-.14,1.26,1.87,1.87,0,0,0,.18.92.56.56,0,0,0,.51.3A.75.75,0,0,0,41.51,42.84Z" transform="translate(-0.42 -0.14)" fill="#586078"/><path d="M44.27,41.16a1.63,1.63,0,0,1-.22-.92,2.92,2.92,0,0,1,.13-.92,1.66,1.66,0,0,1,.38-.67.78.78,0,0,1,.57-.24.66.66,0,0,1,.58.33,1.63,1.63,0,0,1,.22.92,3,3,0,0,1-.13.93,1.5,1.5,0,0,1-.37.66.79.79,0,0,1-.58.25A.65.65,0,0,1,44.27,41.16Zm3.2-2.7H48L44.67,44.1H44.1Zm-2.26,2.29a1.19,1.19,0,0,0,.2-.47,2.25,2.25,0,0,0,.07-.58,1.15,1.15,0,0,0-.11-.54.3.3,0,0,0-.28-.19.38.38,0,0,0-.32.18,1.26,1.26,0,0,0-.2.47,2.25,2.25,0,0,0-.07.58,1.16,1.16,0,0,0,.11.55.3.3,0,0,0,.28.18A.38.38,0,0,0,45.21,40.75Zm1.22,3.08a1.63,1.63,0,0,1-.22-.92,3.37,3.37,0,0,1,.13-.93,1.62,1.62,0,0,1,.38-.66.75.75,0,0,1,.57-.25.65.65,0,0,1,.58.34,1.63,1.63,0,0,1,.22.92,3,3,0,0,1-.13.92,1.5,1.5,0,0,1-.37.66.77.77,0,0,1-.58.25A.66.66,0,0,1,46.43,43.83Zm.94-.41a1.46,1.46,0,0,0,.21-.47,2.78,2.78,0,0,0,.06-.58,1.1,1.1,0,0,0-.1-.54.32.32,0,0,0-.29-.19.4.4,0,0,0-.32.18,1.19,1.19,0,0,0-.2.47,2.25,2.25,0,0,0-.07.58,1.12,1.12,0,0,0,.11.54.31.31,0,0,0,.28.19A.38.38,0,0,0,47.37,43.42Z" transform="translate(-0.42 -0.14)" fill="#586078"/><path d="M56.47,40.12a1.71,1.71,0,0,1,.28,1.06,5,5,0,0,1,0,.54l-.33,2.38H55.7L56,41.74c0-.11,0-.22,0-.34,0-.51-.19-.77-.56-.77s-.79.41-.9,1.23l-.31,2.24h-.69l.33-2.36c0-.11,0-.22,0-.34,0-.51-.19-.77-.56-.77s-.79.41-.9,1.24l-.31,2.23h-.69l.58-4.3h.66l-.06.47a1.13,1.13,0,0,1,1-.52.91.91,0,0,1,.56.18,1.15,1.15,0,0,1,.35.53,1.35,1.35,0,0,1,1.16-.71A.92.92,0,0,1,56.47,40.12Z" transform="translate(-0.42 -0.14)" fill="#586078"/><path d="M61.45,39.8l-.58,4.3h-.66l.06-.44a1.16,1.16,0,0,1-1,.5,1.08,1.08,0,0,1-.66-.23,1.43,1.43,0,0,1-.46-.66,2.57,2.57,0,0,1-.17-1A3.79,3.79,0,0,1,58.24,41a2.29,2.29,0,0,1,.6-.9,1.28,1.28,0,0,1,.84-.32,1,1,0,0,1,1,.69l.08-.64ZM60,43.09a1.27,1.27,0,0,0,.36-.57,2.42,2.42,0,0,0,.14-.84,1.32,1.32,0,0,0-.21-.79.65.65,0,0,0-.57-.29.75.75,0,0,0-.52.21,1.47,1.47,0,0,0-.36.57,2.43,2.43,0,0,0-.13.84,1.4,1.4,0,0,0,.2.79.68.68,0,0,0,.57.29A.73.73,0,0,0,60,43.09Z" transform="translate(-0.42 -0.14)" fill="#586078"/><path d="M66.18,38.12l-.81,6h-.66l.06-.44a1.18,1.18,0,0,1-.95.5,1.08,1.08,0,0,1-.66-.23,1.5,1.5,0,0,1-.46-.66,2.77,2.77,0,0,1-.17-1A3.71,3.71,0,0,1,62.74,41a2.19,2.19,0,0,1,.6-.9,1.28,1.28,0,0,1,.84-.32,1.08,1.08,0,0,1,.6.17,1.06,1.06,0,0,1,.4.5l.31-2.3Zm-1.66,5a1.47,1.47,0,0,0,.36-.57,2.7,2.7,0,0,0,.12-.84,1.32,1.32,0,0,0-.2-.79.65.65,0,0,0-.57-.29.77.77,0,0,0-.52.21,1.47,1.47,0,0,0-.36.57,2.69,2.69,0,0,0-.13.84,1.32,1.32,0,0,0,.21.79.65.65,0,0,0,.57.29A.77.77,0,0,0,64.52,43.09Z" transform="translate(-0.42 -0.14)" fill="#586078"/><path d="M70,42.25H67.7c0,.7.29,1,.85,1a1.08,1.08,0,0,0,.47-.11,1.06,1.06,0,0,0,.37-.33l.29.7a1.45,1.45,0,0,1-.54.45,1.52,1.52,0,0,1-.66.15,1.26,1.26,0,0,1-.77-.24,1.44,1.44,0,0,1-.51-.66,2.79,2.79,0,0,1-.17-1A3.57,3.57,0,0,1,67.25,41a2.1,2.1,0,0,1,.6-.9,1.36,1.36,0,0,1,.87-.32,1.19,1.19,0,0,1,1,.5,2.36,2.36,0,0,1,.37,1.39A4.18,4.18,0,0,1,70,42.25ZM68.1,40.83a1.54,1.54,0,0,0-.34.75h1.68a1.13,1.13,0,0,0-.2-.75.66.66,0,0,0-.55-.27A.76.76,0,0,0,68.1,40.83Z" transform="translate(-0.42 -0.14)" fill="#586078"/><path d="M74,39.8h.69l-.58,4.3h-.69Zm.21-.87a.7.7,0,0,1-.12-.4.81.81,0,0,1,.13-.46.39.39,0,0,1,.34-.19.35.35,0,0,1,.3.16.66.66,0,0,1,.11.38.83.83,0,0,1-.13.49.39.39,0,0,1-.34.18A.33.33,0,0,1,74.17,38.93Z" transform="translate(-0.42 -0.14)" fill="#586078"/><path d="M78.66,40.13A1.68,1.68,0,0,1,79,41.2a3.88,3.88,0,0,1,0,.52l-.32,2.38H77.9l.32-2.36a1.83,1.83,0,0,0,0-.33c0-.52-.19-.78-.59-.78a.74.74,0,0,0-.62.31,1.91,1.91,0,0,0-.34.93l-.31,2.23H75.7l.58-4.3h.65l-.06.47a1.23,1.23,0,0,1,1-.52A.93.93,0,0,1,78.66,40.13Z" transform="translate(-0.42 -0.14)" fill="#586078"/><path d="M83.88,39.34l-.24,1.72H85.5l-.12.88H83.52l-.29,2.16h-.72l.77-5.64h2.81l-.12.88Z" transform="translate(-0.42 -0.14)" fill="#586078"/><path d="M88.31,39.89a1.46,1.46,0,0,1,.66-.14l-.13,1a.52.52,0,0,0-.17,0q-.84,0-1,1.29l-.29,2.12h-.69l.59-4.3h.65l-.07.55A1,1,0,0,1,88.31,39.89Z" transform="translate(-0.42 -0.14)" fill="#586078"/><path d="M93.17,39.8l-.58,4.3h-.66l.06-.44a1.16,1.16,0,0,1-.95.5,1,1,0,0,1-.66-.23,1.52,1.52,0,0,1-.47-.66,2.77,2.77,0,0,1-.17-1A3.79,3.79,0,0,1,90,41a2.18,2.18,0,0,1,.59-.9,1.32,1.32,0,0,1,.85-.32,1,1,0,0,1,1,.69l.08-.64Zm-1.44,3.29a1.47,1.47,0,0,0,.36-.57,2.43,2.43,0,0,0,.13-.84,1.32,1.32,0,0,0-.2-.79.68.68,0,0,0-.57-.29.73.73,0,0,0-.52.21,1.47,1.47,0,0,0-.36.57,2.43,2.43,0,0,0-.13.84,1.32,1.32,0,0,0,.2.79.66.66,0,0,0,.57.29A.73.73,0,0,0,91.73,43.09Z" transform="translate(-0.42 -0.14)" fill="#586078"/><path d="M97.18,40.13a1.75,1.75,0,0,1,.29,1.07,3.88,3.88,0,0,1,0,.52l-.32,2.38h-.69l.32-2.36c0-.11,0-.22,0-.33,0-.52-.2-.78-.59-.78a.74.74,0,0,0-.62.31,1.91,1.91,0,0,0-.34.93L94.9,44.1h-.69l.59-4.3h.65l-.06.47a1.23,1.23,0,0,1,1-.52A.93.93,0,0,1,97.18,40.13Z" transform="translate(-0.42 -0.14)" fill="#586078"/><path d="M99.42,43.92a1.46,1.46,0,0,1-.5-.66,2.59,2.59,0,0,1-.18-1A3.57,3.57,0,0,1,99,41a2,2,0,0,1,.62-.89,1.4,1.4,0,0,1,.91-.33,1.27,1.27,0,0,1,.77.25,1.71,1.71,0,0,1,.5.76l-.59.44a.75.75,0,0,0-.73-.6.73.73,0,0,0-.52.21,1.27,1.27,0,0,0-.36.57,2.42,2.42,0,0,0-.14.84,1.32,1.32,0,0,0,.21.79.67.67,0,0,0,.58.29.74.74,0,0,0,.45-.15,1.18,1.18,0,0,0,.35-.45l.5.5a1.63,1.63,0,0,1-.56.7,1.31,1.31,0,0,1-.78.26A1.25,1.25,0,0,1,99.42,43.92Z" transform="translate(-0.42 -0.14)" fill="#586078"/><path d="M105.67,42.25h-2.33c0,.7.29,1,.85,1a1.12,1.12,0,0,0,.47-.11,1.06,1.06,0,0,0,.37-.33l.29.7a1.45,1.45,0,0,1-.54.45,1.53,1.53,0,0,1-.67.15,1.23,1.23,0,0,1-.76-.24,1.44,1.44,0,0,1-.51-.66,2.79,2.79,0,0,1-.17-1,3.57,3.57,0,0,1,.22-1.29,2.1,2.1,0,0,1,.6-.9,1.36,1.36,0,0,1,.87-.32,1.19,1.19,0,0,1,1,.5,2.36,2.36,0,0,1,.37,1.39A4.18,4.18,0,0,1,105.67,42.25Zm-1.93-1.42a1.45,1.45,0,0,0-.34.75h1.68a1.13,1.13,0,0,0-.2-.75.66.66,0,0,0-.55-.27A.76.76,0,0,0,103.74,40.83Z" transform="translate(-0.42 -0.14)" fill="#586078"/><g clip-path="url(#clip-path)"><path d="M114.21,44.81h-2.95a.7.7,0,0,1-.7-.7V38.9a.69.69,0,0,1,.7-.69h2.95a.69.69,0,0,1,.7.69v5.21a.7.7,0,0,1-.7.7" transform="translate(-0.42 -0.14)" fill="#0055a4"/><path d="M118.85,44.75H115.9a.7.7,0,0,1-.7-.7v-5.2a.7.7,0,0,1,.7-.7h2.95a.7.7,0,0,1,.7.7v5.2a.7.7,0,0,1-.7.7" transform="translate(-0.42 -0.14)" fill="#fff"/><path d="M123.49,44.79h-2.95a.7.7,0,0,1-.7-.7v-5.2a.7.7,0,0,1,.7-.7h2.95a.7.7,0,0,1,.7.7v5.2a.7.7,0,0,1-.7.7" transform="translate(-0.42 -0.14)" fill="#ef4135"/></g></svg>